<?xml version="1.0" encoding="UTF-8"?>
<svg id="Layer_1" data-name="Layer 1" xmlns="http://www.w3.org/2000/svg" viewBox="0 0 462.07 108.26">
  <defs>
    <style>
      .cls-1 {
        fill: #fff;
      }
    </style>
  </defs>
  <path class="cls-1" d="m98.27,86.49l-24.4,19.75h-2.16L0,36.02V0h11.62l86.65,86.49Zm-59.26.66v19.09H0v-57.93l39.01,38.84Zm44.99-27.56L146.41,0h11.62v106.24h-39.01v-36.35l-13.61,11.29-21.41-21.58Z"/>
  <g>
    <path class="cls-1" d="m200.16,108.26c-9.72,0-17.64-3.22-23.76-9.67-6.12-6.44-9.19-15.06-9.19-25.86s2.93-18.85,8.78-25.58c5.85-6.73,13.98-10.1,24.37-10.1,9.62,0,17.45,3.17,23.51,9.51,6.06,6.34,9.08,14.81,9.08,25.41s-3.05,19.76-9.16,26.37c-6.11,6.61-13.99,9.92-23.64,9.92Zm-.1-15.69c3.58,0,6.15-1.56,7.72-4.68,1.57-3.12,2.35-8.83,2.35-17.13,0-12.01-3.22-18.02-9.67-18.02-6.95,0-10.43,6.85-10.43,20.55,0,12.85,3.34,19.28,10.02,19.28Z"/>
    <path class="cls-1" d="m263.12,38.11v69.08h-21.21V38.11h21.21Z"/>
    <path class="cls-1" d="m334.23,107.2h-17.26l-18.92-30.52c-2.43-3.91-4.88-8.67-7.35-14.27,1.11,4.45,1.67,8.23,1.67,11.34v33.45h-17.21V38.11h20.04l16.1,25.3c3.21,5.03,5.63,9.45,7.29,13.26-1.08-5.9-1.62-11.94-1.62-18.12v-20.45h17.26v69.08Z"/>
    <path class="cls-1" d="m402.3,38.11v45.75c0,8.67-2.57,14.9-7.72,18.7-5.15,3.8-11.85,5.69-20.12,5.69-8.71,0-15.7-1.82-20.98-5.47-5.28-3.64-7.92-9.58-7.92-17.81v-46.87h21.56v44.39c0,3.31.7,5.72,2.09,7.24,1.4,1.52,3.62,2.28,6.69,2.28,2.56,0,4.65-.55,6.28-1.65,1.63-1.1,2.61-2.34,2.93-3.72.32-1.38.48-4.08.48-8.1v-40.44h16.7Z"/>
    <path class="cls-1" d="m462.07,90.24v16.95h-48.43V38.11h21.21v52.13h27.23Z"/>
  </g>
</svg>